<?xml version="1.0" encoding="UTF-8" standalone="no"?>
<!DOCTYPE svg PUBLIC "-//W3C//DTD SVG 1.1//EN"
 "http://www.w3.org/Graphics/SVG/1.1/DTD/svg11.dtd">
<!-- Generated by graphviz version 2.30.1 (20180420.1509)
 -->
<!-- Title: G Pages: 1 -->
<svg width="778pt" height="245pt"
 viewBox="0.00 0.00 778.00 245.39" xmlns="http://www.w3.org/2000/svg" xmlns:xlink="http://www.w3.org/1999/xlink">
<g id="graph0" class="graph" transform="scale(1 1) rotate(0) translate(4 241.39)">
<title>G</title>
<polygon fill="white" stroke="white" points="-4,5 -4,-241.39 775,-241.39 775,5 -4,5"/>
<!-- Event source 1 -->
<g id="node1" class="node"><title>Event source 1</title>
<path fill="none" stroke="black" d="M12.5,-155.39C12.5,-155.39 185.5,-155.39 185.5,-155.39 191.5,-155.39 197.5,-161.39 197.5,-167.39 197.5,-167.39 197.5,-193.39 197.5,-193.39 197.5,-199.39 191.5,-205.39 185.5,-205.39 185.5,-205.39 12.5,-205.39 12.5,-205.39 6.5,-205.39 0.5,-199.39 0.5,-193.39 0.5,-193.39 0.5,-167.39 0.5,-167.39 0.5,-161.39 6.5,-155.39 12.5,-155.39"/>
<text text-anchor="middle" x="99" y="-175.39" font-family="Inconsolata" font-size="20.00">Event source 1</text>
</g>
<!-- Wait for\nan event\nto happen -->
<g id="node2" class="node"><title>Wait for\nan event\nto happen</title>
<path fill="none" stroke="black" d="M248.5,-64.3898C248.5,-64.3898 361.5,-64.3898 361.5,-64.3898 367.5,-64.3898 373.5,-70.3898 373.5,-76.3898 373.5,-76.3898 373.5,-146.39 373.5,-146.39 373.5,-152.39 367.5,-158.39 361.5,-158.39 361.5,-158.39 248.5,-158.39 248.5,-158.39 242.5,-158.39 236.5,-152.39 236.5,-146.39 236.5,-146.39 236.5,-76.3898 236.5,-76.3898 236.5,-70.3898 242.5,-64.3898 248.5,-64.3898"/>
<text text-anchor="middle" x="305" y="-128.39" font-family="Inconsolata" font-size="20.00">Wait for</text>
<text text-anchor="middle" x="305" y="-106.39" font-family="Inconsolata" font-size="20.00">an event</text>
<text text-anchor="middle" x="305" y="-84.3898" font-family="Inconsolata" font-size="20.00">to happen</text>
</g>
<!-- Event source 1&#45;&gt;Wait for\nan event\nto happen -->
<g id="edge1" class="edge"><title>Event source 1&#45;&gt;Wait for\nan event\nto happen</title>
<path fill="none" stroke="black" d="M173.937,-155.382C187.969,-150.635 202.77,-145.629 217.159,-140.762"/>
<polygon fill="black" stroke="black" points="236.415,-134.25 220.353,-149.183 226.942,-137.454 217.469,-140.658 217.469,-140.658 217.469,-140.658 226.942,-137.454 214.585,-132.132 236.415,-134.25 236.415,-134.25"/>
</g>
<!-- Handle an\nevent -->
<g id="node5" class="node"><title>Handle an\nevent</title>
<path fill="none" stroke="black" d="M644.5,-70.3898C644.5,-70.3898 757.5,-70.3898 757.5,-70.3898 763.5,-70.3898 769.5,-76.3898 769.5,-82.3898 769.5,-82.3898 769.5,-130.39 769.5,-130.39 769.5,-136.39 763.5,-142.39 757.5,-142.39 757.5,-142.39 644.5,-142.39 644.5,-142.39 638.5,-142.39 632.5,-136.39 632.5,-130.39 632.5,-130.39 632.5,-82.3898 632.5,-82.3898 632.5,-76.3898 638.5,-70.3898 644.5,-70.3898"/>
<text text-anchor="middle" x="701" y="-112.39" font-family="Inconsolata" font-size="20.00">Handle an</text>
<text text-anchor="middle" x="701" y="-90.3898" font-family="Inconsolata" font-size="20.00">event</text>
</g>
<!-- Wait for\nan event\nto happen&#45;&gt;Handle an\nevent -->
<g id="edge4" class="edge"><title>Wait for\nan event\nto happen:n&#45;&gt;Handle an\nevent:n</title>
<path fill="none" stroke="black" d="M305,-159.39C305,-240.581 641.542,-233.326 694.127,-162.697"/>
<polygon fill="black" stroke="black" points="701,-143.39 702.771,-165.25 697.646,-152.811 694.292,-162.231 694.292,-162.231 694.292,-162.231 697.646,-152.811 685.814,-159.213 701,-143.39 701,-143.39"/>
<text text-anchor="middle" x="503" y="-222.99" font-family="Inconsolata" font-size="18.00">Something happened...</text>
</g>
<!-- Event source 2 -->
<g id="node3" class="node"><title>Event source 2</title>
<path fill="none" stroke="black" d="M12.5,-86.3898C12.5,-86.3898 185.5,-86.3898 185.5,-86.3898 191.5,-86.3898 197.5,-92.3898 197.5,-98.3898 197.5,-98.3898 197.5,-124.39 197.5,-124.39 197.5,-130.39 191.5,-136.39 185.5,-136.39 185.5,-136.39 12.5,-136.39 12.5,-136.39 6.5,-136.39 0.5,-130.39 0.5,-124.39 0.5,-124.39 0.5,-98.3898 0.5,-98.3898 0.5,-92.3898 6.5,-86.3898 12.5,-86.3898"/>
<text text-anchor="middle" x="99" y="-106.39" font-family="Inconsolata" font-size="20.00">Event source 2</text>
</g>
<!-- Event source 2&#45;&gt;Wait for\nan event\nto happen -->
<g id="edge2" class="edge"><title>Event source 2&#45;&gt;Wait for\nan event\nto happen</title>
<path fill="none" stroke="black" d="M197.519,-111.39C203.768,-111.39 210.039,-111.39 216.239,-111.39"/>
<polygon fill="black" stroke="black" points="236.283,-111.39 216.284,-120.39 226.283,-111.39 216.283,-111.39 216.283,-111.39 216.283,-111.39 226.283,-111.39 216.283,-102.39 236.283,-111.39 236.283,-111.39"/>
</g>
<!-- Event source N -->
<g id="node4" class="node"><title>Event source N</title>
<path fill="none" stroke="black" d="M12.5,-17.3898C12.5,-17.3898 185.5,-17.3898 185.5,-17.3898 191.5,-17.3898 197.5,-23.3898 197.5,-29.3898 197.5,-29.3898 197.5,-55.3898 197.5,-55.3898 197.5,-61.3898 191.5,-67.3898 185.5,-67.3898 185.5,-67.3898 12.5,-67.3898 12.5,-67.3898 6.5,-67.3898 0.5,-61.3898 0.5,-55.3898 0.5,-55.3898 0.5,-29.3898 0.5,-29.3898 0.5,-23.3898 6.5,-17.3898 12.5,-17.3898"/>
<text text-anchor="middle" x="99" y="-37.3898" font-family="Inconsolata" font-size="20.00">Event source N</text>
</g>
<!-- Event source N&#45;&gt;Wait for\nan event\nto happen -->
<g id="edge3" class="edge"><title>Event source N&#45;&gt;Wait for\nan event\nto happen</title>
<path fill="none" stroke="black" d="M173.937,-67.3979C187.969,-72.1441 202.77,-77.1503 217.159,-82.0171"/>
<polygon fill="black" stroke="black" points="236.415,-88.53 214.585,-90.6474 226.942,-85.3259 217.469,-82.1219 217.469,-82.1219 217.469,-82.1219 226.942,-85.3259 220.353,-73.5963 236.415,-88.53 236.415,-88.53"/>
</g>
<!-- Handle an\nevent&#45;&gt;Wait for\nan event\nto happen -->
<g id="edge5" class="edge"><title>Handle an\nevent:s&#45;&gt;Wait for\nan event\nto happen:s</title>
<path fill="none" stroke="black" d="M701,-69.3898C701,11.7445 364.458,23.1823 311.873,-44.4781"/>
<polygon fill="black" stroke="black" points="305,-63.3898 303.373,-41.5185 308.416,-53.9912 311.832,-44.5927 311.832,-44.5927 311.832,-44.5927 308.416,-53.9912 320.29,-47.667 305,-63.3898 305,-63.3898"/>
</g>
</g>
</svg>
