<?xml version="1.0" encoding="UTF-8" standalone="no"?>
<!DOCTYPE svg PUBLIC "-//W3C//DTD SVG 1.1//EN"
 "http://www.w3.org/Graphics/SVG/1.1/DTD/svg11.dtd">
<!-- Generated by graphviz version 2.30.1 (20180420.1509)
 -->
<!-- Title: G Pages: 1 -->
<svg width="872pt" height="234pt"
 viewBox="0.00 0.00 872.00 234.25" xmlns="http://www.w3.org/2000/svg" xmlns:xlink="http://www.w3.org/1999/xlink">
<g id="graph0" class="graph" transform="scale(1 1) rotate(0) translate(4 230.245)">
<title>G</title>
<polygon fill="white" stroke="white" points="-4,5 -4,-230.245 869,-230.245 869,5 -4,5"/>
<!-- Event source 1 -->
<g id="node1" class="node"><title>Event source 1</title>
<path fill="none" stroke="black" d="M12.5,-157.238C12.5,-157.238 185.5,-157.238 185.5,-157.238 191.5,-157.238 197.5,-163.238 197.5,-169.238 197.5,-169.238 197.5,-195.238 197.5,-195.238 197.5,-201.238 191.5,-207.238 185.5,-207.238 185.5,-207.238 12.5,-207.238 12.5,-207.238 6.5,-207.238 0.5,-201.238 0.5,-195.238 0.5,-195.238 0.5,-169.238 0.5,-169.238 0.5,-163.238 6.5,-157.238 12.5,-157.238"/>
<text text-anchor="middle" x="99" y="-177.238" font-family="Inconsolata" font-size="20.00">Event source 1</text>
</g>
<!-- Wait for\nan event\nto happen -->
<g id="node2" class="node"><title>Wait for\nan event\nto happen</title>
<path fill="none" stroke="black" d="M246.5,-66.2379C246.5,-66.2379 359.5,-66.2379 359.5,-66.2379 365.5,-66.2379 371.5,-72.2379 371.5,-78.2379 371.5,-78.2379 371.5,-148.238 371.5,-148.238 371.5,-154.238 365.5,-160.238 359.5,-160.238 359.5,-160.238 246.5,-160.238 246.5,-160.238 240.5,-160.238 234.5,-154.238 234.5,-148.238 234.5,-148.238 234.5,-78.2379 234.5,-78.2379 234.5,-72.2379 240.5,-66.2379 246.5,-66.2379"/>
<text text-anchor="middle" x="303" y="-130.238" font-family="Inconsolata" font-size="20.00">Wait for</text>
<text text-anchor="middle" x="303" y="-108.238" font-family="Inconsolata" font-size="20.00">an event</text>
<text text-anchor="middle" x="303" y="-86.2379" font-family="Inconsolata" font-size="20.00">to happen</text>
</g>
<!-- Event source 1&#45;&gt;Wait for\nan event\nto happen -->
<g id="edge1" class="edge"><title>Event source 1&#45;&gt;Wait for\nan event\nto happen</title>
<path fill="none" stroke="black" d="M173.212,-157.23C186.796,-152.59 201.106,-147.702 215.052,-142.938"/>
<polygon fill="black" stroke="black" points="234.412,-136.325 218.395,-151.307 224.948,-139.558 215.485,-142.79 215.485,-142.79 215.485,-142.79 224.948,-139.558 212.576,-134.273 234.412,-136.325 234.412,-136.325"/>
</g>
<!-- Demultiplex and\ndispatch events -->
<g id="node5" class="node"><title>Demultiplex and\ndispatch events</title>
<path fill="#ffff88" stroke="black" d="M420.5,-77.2379C420.5,-77.2379 605.5,-77.2379 605.5,-77.2379 611.5,-77.2379 617.5,-83.2379 617.5,-89.2379 617.5,-89.2379 617.5,-137.238 617.5,-137.238 617.5,-143.238 611.5,-149.238 605.5,-149.238 605.5,-149.238 420.5,-149.238 420.5,-149.238 414.5,-149.238 408.5,-143.238 408.5,-137.238 408.5,-137.238 408.5,-89.2379 408.5,-89.2379 408.5,-83.2379 414.5,-77.2379 420.5,-77.2379"/>
<text text-anchor="middle" x="513" y="-119.238" font-family="Inconsolata" font-size="20.00">Demultiplex and</text>
<text text-anchor="middle" x="513" y="-97.2379" font-family="Inconsolata" font-size="20.00">dispatch events</text>
</g>
<!-- Wait for\nan event\nto happen&#45;&gt;Demultiplex and\ndispatch events -->
<g id="edge4" class="edge"><title>Wait for\nan event\nto happen:n&#45;&gt;Demultiplex and\ndispatch events:n</title>
<path fill="none" stroke="black" d="M303,-161.238C303,-247.58 482.226,-244.769 509.53,-170.15"/>
<polygon fill="black" stroke="black" points="513,-150.238 518.433,-171.486 511.283,-160.089 509.567,-169.941 509.567,-169.941 509.567,-169.941 511.283,-160.089 500.7,-168.396 513,-150.238 513,-150.238"/>
</g>
<!-- Event source 2 -->
<g id="node3" class="node"><title>Event source 2</title>
<path fill="none" stroke="black" d="M12.5,-88.2379C12.5,-88.2379 185.5,-88.2379 185.5,-88.2379 191.5,-88.2379 197.5,-94.2379 197.5,-100.238 197.5,-100.238 197.5,-126.238 197.5,-126.238 197.5,-132.238 191.5,-138.238 185.5,-138.238 185.5,-138.238 12.5,-138.238 12.5,-138.238 6.5,-138.238 0.5,-132.238 0.5,-126.238 0.5,-126.238 0.5,-100.238 0.5,-100.238 0.5,-94.2379 6.5,-88.2379 12.5,-88.2379"/>
<text text-anchor="middle" x="99" y="-108.238" font-family="Inconsolata" font-size="20.00">Event source 2</text>
</g>
<!-- Event source 2&#45;&gt;Wait for\nan event\nto happen -->
<g id="edge2" class="edge"><title>Event source 2&#45;&gt;Wait for\nan event\nto happen</title>
<path fill="none" stroke="black" d="M197.746,-113.238C203.262,-113.238 208.791,-113.238 214.267,-113.238"/>
<polygon fill="black" stroke="black" points="234.356,-113.238 214.356,-122.238 224.356,-113.238 214.356,-113.238 214.356,-113.238 214.356,-113.238 224.356,-113.238 214.356,-104.238 234.356,-113.238 234.356,-113.238"/>
</g>
<!-- Event source N -->
<g id="node4" class="node"><title>Event source N</title>
<path fill="none" stroke="black" d="M12.5,-19.2379C12.5,-19.2379 185.5,-19.2379 185.5,-19.2379 191.5,-19.2379 197.5,-25.2379 197.5,-31.2379 197.5,-31.2379 197.5,-57.2379 197.5,-57.2379 197.5,-63.2379 191.5,-69.2379 185.5,-69.2379 185.5,-69.2379 12.5,-69.2379 12.5,-69.2379 6.5,-69.2379 0.5,-63.2379 0.5,-57.2379 0.5,-57.2379 0.5,-31.2379 0.5,-31.2379 0.5,-25.2379 6.5,-19.2379 12.5,-19.2379"/>
<text text-anchor="middle" x="99" y="-39.2379" font-family="Inconsolata" font-size="20.00">Event source N</text>
</g>
<!-- Event source N&#45;&gt;Wait for\nan event\nto happen -->
<g id="edge3" class="edge"><title>Event source N&#45;&gt;Wait for\nan event\nto happen</title>
<path fill="none" stroke="black" d="M173.212,-69.246C186.796,-73.8859 201.106,-78.7741 215.052,-83.5379"/>
<polygon fill="black" stroke="black" points="234.412,-90.1508 212.576,-92.2026 224.948,-86.9183 215.485,-83.6858 215.485,-83.6858 215.485,-83.6858 224.948,-86.9183 218.395,-75.169 234.412,-90.1508 234.412,-90.1508"/>
</g>
<!-- Demultiplex and\ndispatch events&#45;&gt;Wait for\nan event\nto happen -->
<g id="edge5" class="edge"><title>Demultiplex and\ndispatch events:s&#45;&gt;Wait for\nan event\nto happen:s</title>
<path fill="none" stroke="black" d="M513,-76.2379C513,9.92172 334.531,26.0013 306.645,-45.2352"/>
<polygon fill="black" stroke="black" points="303,-65.2379 297.731,-43.9484 304.793,-55.3999 306.585,-45.5619 306.585,-45.5619 306.585,-45.5619 304.793,-55.3999 315.44,-47.1754 303,-65.2379 303,-65.2379"/>
</g>
<!-- Event handler 1 -->
<g id="node6" class="node"><title>Event handler 1</title>
<path fill="none" stroke="black" d="M666.5,-157.238C666.5,-157.238 851.5,-157.238 851.5,-157.238 857.5,-157.238 863.5,-163.238 863.5,-169.238 863.5,-169.238 863.5,-195.238 863.5,-195.238 863.5,-201.238 857.5,-207.238 851.5,-207.238 851.5,-207.238 666.5,-207.238 666.5,-207.238 660.5,-207.238 654.5,-201.238 654.5,-195.238 654.5,-195.238 654.5,-169.238 654.5,-169.238 654.5,-163.238 660.5,-157.238 666.5,-157.238"/>
<text text-anchor="middle" x="759" y="-177.238" font-family="Inconsolata" font-size="20.00">Event handler 1</text>
</g>
<!-- Demultiplex and\ndispatch events&#45;&gt;Event handler 1 -->
<g id="edge6" class="edge"><title>Demultiplex and\ndispatch events&#45;&gt;Event handler 1</title>
<path fill="none" stroke="black" d="M617.832,-142.6C628.399,-145.588 639.152,-148.629 649.765,-151.63"/>
<polygon fill="black" stroke="black" points="669.271,-157.147 647.577,-160.365 659.649,-154.425 650.026,-151.704 650.026,-151.704 650.026,-151.704 659.649,-154.425 652.475,-143.044 669.271,-157.147 669.271,-157.147"/>
</g>
<!-- Event handler 2 -->
<g id="node7" class="node"><title>Event handler 2</title>
<path fill="none" stroke="black" d="M666.5,-88.2379C666.5,-88.2379 851.5,-88.2379 851.5,-88.2379 857.5,-88.2379 863.5,-94.2379 863.5,-100.238 863.5,-100.238 863.5,-126.238 863.5,-126.238 863.5,-132.238 857.5,-138.238 851.5,-138.238 851.5,-138.238 666.5,-138.238 666.5,-138.238 660.5,-138.238 654.5,-132.238 654.5,-126.238 654.5,-126.238 654.5,-100.238 654.5,-100.238 654.5,-94.2379 660.5,-88.2379 666.5,-88.2379"/>
<text text-anchor="middle" x="759" y="-108.238" font-family="Inconsolata" font-size="20.00">Event handler 2</text>
</g>
<!-- Demultiplex and\ndispatch events&#45;&gt;Event handler 2 -->
<g id="edge7" class="edge"><title>Demultiplex and\ndispatch events&#45;&gt;Event handler 2</title>
<path fill="none" stroke="black" d="M617.832,-113.238C623.204,-113.238 628.623,-113.238 634.048,-113.238"/>
<polygon fill="black" stroke="black" points="654.262,-113.238 634.262,-122.238 644.262,-113.238 634.262,-113.238 634.262,-113.238 634.262,-113.238 644.262,-113.238 634.261,-104.238 654.262,-113.238 654.262,-113.238"/>
</g>
<!-- Event handler M -->
<g id="node8" class="node"><title>Event handler M</title>
<path fill="none" stroke="black" d="M666.5,-19.2379C666.5,-19.2379 851.5,-19.2379 851.5,-19.2379 857.5,-19.2379 863.5,-25.2379 863.5,-31.2379 863.5,-31.2379 863.5,-57.2379 863.5,-57.2379 863.5,-63.2379 857.5,-69.2379 851.5,-69.2379 851.5,-69.2379 666.5,-69.2379 666.5,-69.2379 660.5,-69.2379 654.5,-63.2379 654.5,-57.2379 654.5,-57.2379 654.5,-31.2379 654.5,-31.2379 654.5,-25.2379 660.5,-19.2379 666.5,-19.2379"/>
<text text-anchor="middle" x="759" y="-39.2379" font-family="Inconsolata" font-size="20.00">Event handler M</text>
</g>
<!-- Demultiplex and\ndispatch events&#45;&gt;Event handler M -->
<g id="edge8" class="edge"><title>Demultiplex and\ndispatch events&#45;&gt;Event handler M</title>
<path fill="none" stroke="black" d="M617.832,-83.8756C628.399,-80.8874 639.152,-77.8465 649.765,-74.8455"/>
<polygon fill="black" stroke="black" points="669.271,-69.3292 652.475,-83.4319 659.649,-72.0504 650.026,-74.7716 650.026,-74.7716 650.026,-74.7716 659.649,-72.0504 647.577,-66.1112 669.271,-69.3292 669.271,-69.3292"/>
</g>
</g>
</svg>
